<svg width="1407" height="259" xmlns="http://www.w3.org/2000/svg" xmlns:xlink="http://www.w3.org/1999/xlink" xml:space="preserve" overflow="hidden"><defs><linearGradient x1="1499.5" y1="1504.5" x2="2901.5" y2="1504.5" gradientUnits="userSpaceOnUse" spreadMethod="reflect" id="fill0"><stop offset="0" stop-color="#DF0367"/><stop offset="0.2" stop-color="#DF0367"/><stop offset="0.8" stop-color="#5D4DFE"/><stop offset="1" stop-color="#5D4DFE"/></linearGradient></defs><g transform="translate(-1497 -1375)"><path d="M2516.25 1575.97 2576.14 1575.97 2577.96 1577.98C2581.77 1580.89 2586.07 1583.17 2590.85 1584.83 2595.64 1586.48 2600.59 1587.31 2605.71 1587.31 2614.82 1587.31 2622.53 1585.6 2628.85 1582.17L2636.04 1575.97 2655.16 1575.97 2684.1 1594.33C2675.91 1606.21 2665.12 1615.37 2651.74 1621.82 2638.36 1628.27 2622.79 1631.5 2605.03 1631.5 2591.93 1631.5 2579.58 1629.44 2567.97 1625.33 2556.35 1621.22 2546.16 1615.26 2537.4 1607.44 2528.63 1599.61 2521.74 1589.96 2516.73 1578.49ZM2419.84 1575.97 2477.05 1575.97 2477.05 1625.85 2419.84 1625.85ZM2308.49 1575.97 2365.87 1575.97 2365.87 1625.85 2308.49 1625.85ZM2197.3 1575.97 2255.03 1575.97 2255.03 1625.85 2197.3 1625.85ZM1982.66 1575.97 2035.91 1575.97 2037.5 1582C2038.98 1584.28 2040.89 1586.14 2043.23 1587.57 2045.56 1588.99 2048.26 1589.99 2051.34 1590.56 2054.41 1591.14 2057.31 1591.42 2060.05 1591.42 2071.78 1591.42 2080.71 1588.22 2086.86 1581.83L2088.92 1575.97 2148.52 1575.97 2148.52 1625.85 2096.08 1625.85 2096.08 1607.18 2095.06 1607.18C2090.62 1614.49 2083.9 1620.14 2074.91 1624.13 2065.91 1628.13 2056.18 1630.13 2045.7 1630.13 2038.76 1630.13 2031.55 1629.19 2024.1 1627.3 2016.64 1625.42 2009.81 1622.36 2003.6 1618.14 1997.4 1613.92 1992.33 1608.29 1988.4 1601.27ZM1846.27 1575.97 1944.71 1575.97 1944.71 1625.85 1876.91 1625.85ZM1719.61 1575.97 1777.09 1575.97 1777.51 1625.85 1719.61 1625.85ZM2088.74 1549.8 2096.08 1549.8 2096.08 1555.62 2088.92 1575.97 2035.91 1575.97 2035.28 1573.61C2035.28 1568.47 2036.91 1564.3 2040.15 1561.11 2043.4 1557.91 2047.52 1555.51 2052.53 1553.91 2057.54 1552.31 2063.26 1551.23 2069.7 1550.66 2076.13 1550.09 2082.48 1549.8 2088.74 1549.8ZM2680.38 1494.13 2901.5 1494.13 2901.5 1575.97 2655.16 1575.97 2644.14 1568.98 2636.04 1575.97 2576.14 1575.97 2568.57 1567.61C2566.12 1563.62 2564.61 1559.16 2564.04 1554.25L2690.42 1554.25C2690.65 1552.2 2690.76 1547.63 2690.76 1540.55 2690.76 1525.59 2688.6 1512.26 2684.27 1500.56ZM2577.48 1494.13 2627.08 1494.13 2629.37 1494.99C2635.12 1501.5 2637.99 1509.32 2637.99 1518.46L2564.04 1518.46C2564.27 1514 2565.44 1509.75 2567.54 1505.7 2569.65 1501.65 2572.47 1498.08 2575.99 1494.99ZM2473.98 1494.13 2520.79 1494.13 2516.56 1500.39C2511.67 1511.98 2509.22 1524.91 2509.22 1539.18L2516.25 1575.97 2477.05 1575.97 2477.05 1517.77ZM2392.89 1494.13 2396.99 1494.13 2407.37 1496.62C2410.56 1498.62 2413.06 1501.25 2414.89 1504.5 2416.71 1507.75 2417.99 1511.66 2418.73 1516.23 2419.47 1520.8 2419.84 1525.54 2419.84 1530.45L2419.84 1575.97 2365.87 1575.97 2365.87 1531.48C2365.87 1526.57 2366.47 1521.83 2367.66 1517.26 2368.86 1512.69 2370.68 1508.67 2373.13 1505.19 2375.58 1501.7 2378.59 1498.9 2382.18 1496.79ZM2282.74 1494.13 2284.81 1494.13 2302.59 1502.36C2306.52 1508.18 2308.49 1516.12 2308.49 1526.17L2308.49 1575.97 2255.03 1575.97 2255.03 1531.13C2255.03 1520.63 2257.53 1511.75 2262.54 1504.5ZM2142.97 1494.13 2197.3 1494.13 2197.3 1575.97 2148.52 1575.97 2148.52 1537.81C2148.52 1521.94 2147.06 1508.21 2144.16 1496.62ZM1944.71 1494.13 2008.64 1494.13 2019.91 1506.3 2038.53 1494.13 2083.96 1494.13 2085.24 1494.48C2091.33 1498.59 2094.38 1504.99 2094.38 1513.66L2094.38 1516.4C2081.74 1516.4 2068.79 1517.12 2055.52 1518.54 2042.26 1519.97 2030.19 1522.77 2019.32 1526.94 2008.44 1531.1 1999.59 1537.04 1992.76 1544.75 1985.93 1552.46 1982.51 1562.65 1982.51 1575.32L1982.66 1575.97 1944.71 1575.97ZM1859.18 1494.13 1887.75 1494.13 1888.18 1539.53 1886.98 1539.53ZM1776.4 1494.13 1795.99 1494.13 1846.27 1575.97 1777.09 1575.97ZM1499.5 1494.13 1719.61 1494.13 1719.61 1575.97 1499.5 1575.97ZM2305.75 1446.18C2318.39 1446.18 2329.07 1448.78 2337.78 1453.97 2346.49 1459.17 2353.29 1466.56 2358.18 1476.15 2363.99 1467.02 2371.45 1459.74 2380.56 1454.32 2389.67 1448.89 2400.77 1446.18 2413.86 1446.18 2425.7 1446.18 2435.66 1448.35 2443.75 1452.69 2451.83 1457.03 2458.32 1462.65 2463.22 1469.56 2468.11 1476.47 2471.64 1484.2 2473.81 1492.77L2473.98 1494.13 2396.99 1494.13 2394.9 1493.62 2392.89 1494.13 2284.81 1494.13 2283.72 1493.62 2282.74 1494.13 2197.3 1494.13 2197.3 1451.15 2252.98 1451.15 2252.98 1475.3 2253.66 1475.3C2255.71 1471.64 2258.33 1468.05 2261.52 1464.51 2264.71 1460.97 2268.49 1457.86 2272.88 1455.17 2277.26 1452.49 2282.21 1450.32 2287.74 1448.66 2293.26 1447.01 2299.26 1446.18 2305.75 1446.18ZM2603.32 1445.5C2616.07 1445.5 2627.83 1447.67 2638.59 1452.01 2649.35 1456.34 2658.57 1462.59 2666.26 1470.76L2680.38 1494.13 2627.08 1494.13 2603.66 1485.23C2598.08 1485.23 2592.96 1486.09 2588.29 1487.8L2577.48 1494.13 2520.79 1494.13 2536.46 1470.93C2544.83 1462.88 2554.73 1456.63 2566.17 1452.18 2577.62 1447.72 2590 1445.5 2603.32 1445.5ZM2068.42 1445.5C2083.1 1445.5 2095.54 1447.32 2105.73 1450.98 2115.92 1454.63 2124.15 1460.25 2130.41 1467.85L2142.97 1494.13 2083.96 1494.13 2062.95 1488.31C2054.75 1488.31 2046.87 1490.08 2039.3 1493.62L2038.53 1494.13 2008.64 1494.13 1990.88 1474.96C2001.13 1465.14 2013.05 1457.77 2026.66 1452.86 2040.27 1447.95 2054.18 1445.5 2068.42 1445.5ZM1886.64 1377.5 1944.71 1377.5 1944.71 1494.13 1887.75 1494.13ZM1719.61 1377.5 1787.76 1377.5 1859.18 1494.13 1795.99 1494.13 1777.17 1463.48 1776.14 1463.48 1776.4 1494.13 1719.61 1494.13Z" stroke="#000000" stroke-width="4.58333" stroke-linejoin="round" stroke-miterlimit="10" fill="url(#fill0)" fill-rule="evenodd"/></g></svg>